<?xml version="1.0" encoding="utf-8"?><svg xmlns="http://www.w3.org/2000/svg" xmlns:xlink="http://www.w3.org/1999/xlink"><symbol viewBox="0 0 306 306" id="arrow" xmlns="http://www.w3.org/2000/svg"><path d="M94.3 0L58.7 35.7 175.9 153 58.7 270.3 94.3 306l153.1-153z"/></symbol><symbol viewBox="0 0 306 306" id="book" xmlns="http://www.w3.org/2000/svg"><path d="M63.7 0c-14 0-25.5 11.5-25.5 25.5V255c0 14 11.4 25.5 25.5 25.5h25.5V306l31.9-25.5L153 306v-25.5h89.3c14.1 0 25.5-11.5 25.5-25.5v-12.8c0 14-11.4 25.5-25.5 25.5H153v-25.5H89.3v25.5H70.1c-10.6 0-19.1-8.9-19.1-19.1 0-11.5 8.6-19.1 19.1-19.1h172.1c14.1 0 25.5-11.5 25.5-25.5V25.5c0-14-11.4-25.5-25.5-25.5H63.7z"/></symbol><symbol viewBox="0 0 488.2 488.2" id="calendar" xmlns="http://www.w3.org/2000/svg"><path d="M177.9 269.3c0-6.1-5-11.1-11.1-11.1h-38.7c-6.1 0-11.1 5-11.1 11.1V308c0 6.1 5 11.1 11.1 11.1h38.7c6.1 0 11.1-5 11.1-11.1v-38.7zm96.6 0c0-6.1-5-11.1-11.1-11.1h-38.7c-6.1 0-11.1 5-11.1 11.1V308c0 6.1 5 11.1 11.1 11.1h38.7c6.1 0 11.1-5 11.1-11.1v-38.7zm96.6 0c0-6.1-5-11.1-11.1-11.1h-38.7c-6.1 0-11.1 5-11.1 11.1V308c0 6.1 5 11.1 11.1 11.1H360c6.1 0 11.1-5 11.1-11.1v-38.7zM177.9 366c0-6.1-5-11.1-11.1-11.1h-38.7c-6.1 0-11.1 5-11.1 11.1v38.7c0 6.1 5 11.1 11.1 11.1h38.7c6.1 0 11.1-5 11.1-11.1V366zm96.6 0c0-6.1-5-11.1-11.1-11.1h-38.7c-6.1 0-11.1 5-11.1 11.1v38.7c0 6.1 5 11.1 11.1 11.1h38.7c6.1 0 11.1-5 11.1-11.1V366zm96.6 0c0-6.1-5-11.1-11.1-11.1h-38.7c-6.1 0-11.1 5-11.1 11.1v38.7c0 6.1 5 11.1 11.1 11.1H360c6.1 0 11.1-5 11.1-11.1V366z"/><path d="M440.3 54.4v59c0 26.7-21.7 48.2-48.3 48.2h-30.5c-26.7 0-48.6-21.5-48.6-48.2V54.1H175.4v59.3c0 26.7-21.9 48.2-48.6 48.2H96.2c-26.7 0-48.3-21.5-48.3-48.2v-59c-23.3.7-42.5 20-42.5 43.7v346.1c0 24.2 19.6 44 43.8 44H439c24.1 0 43.8-19.9 43.8-44V98.1c-.1-23.7-19.2-43-42.5-43.7zm-14.2 368.2c0 10.4-8.5 18.9-18.9 18.9h-327c-10.4 0-18.9-8.5-18.9-18.9V243.8c0-10.4 8.5-18.9 18.9-18.9h327c10.4 0 18.9 8.5 18.9 18.9v178.8z"/><path d="M96.1 129.9h30.2c9.2 0 16.6-7.4 16.6-16.6V16.6c0-9.2-7.4-16.6-16.6-16.6H96.1C87 0 79.6 7.4 79.6 16.6v96.8c0 9.1 7.4 16.5 16.5 16.5zm264.9 0h30.2c9.1 0 16.6-7.4 16.6-16.6V16.6c0-9.2-7.4-16.6-16.6-16.6H361c-9.2 0-16.6 7.4-16.6 16.6v96.8c.1 9.1 7.5 16.5 16.6 16.5z"/></symbol><symbol viewBox="0 0 100 100" id="complaints" xmlns="http://www.w3.org/2000/svg"><path d="M4.7 6C2 6 0 8.1 0 10.7v65.4c0 2.7 2 4.6 4.7 4.6H40l8.3 12.2c.2.6.9.9 1.6.9s1.2-.4 1.6-.9l8.7-12.2h35.3c2.6 0 4.6-1.9 4.6-4.6V10.7c0-2.6-2-4.7-4.6-4.7H4.7zm45.4 52.5c2.2 0 4.1 2 4.1 4.2v.8c0 2.4-1.9 4.1-4.1 4.1-2.3 0-4.1-1.8-4.1-4.1v-.8c-.1-2.3 1.7-4.2 4.1-4.2zm-.2-39.4c3.6 0 6.6 3.2 6.1 6.7l-1.9 25.3c-.2 2.4-2.3 4.1-4.6 4-2.1-.2-3.7-1.9-3.8-4l-2-25.3c-.2-3.4 2.8-6.7 6.2-6.7z"/></symbol><symbol viewBox="0 0 267.5 267.5" id="crown" xmlns="http://www.w3.org/2000/svg"><path d="M257 100.3c0 .7 0 1.5-.2 2.2l-16.5 66c-.8 3.3-3.8 5.7-7.2 5.7l-99 .5H35c-3.4 0-6.4-2.3-7.3-5.7l-16.5-66.3c-.2-.8-.2-1.5-.2-2.3-6.4-2-11-8-11-15 0-8.7 7.1-15.8 15.8-15.8s15.8 7.1 15.8 15.8c0 4.9-2.2 9.3-5.8 12.2l20.7 20.8c5.2 5.3 12.5 8.3 19.9 8.3 8.8 0 17.1-4.2 22.4-11.1l33.9-45c-2.9-2.8-4.6-6.8-4.6-11.1 0-8.7 7.1-15.8 15.8-15.8s15.8 7.1 15.8 15.8c0 4.2-1.7 8-4.4 10.9l33.7 45.1c5.3 7 13.6 11.2 22.4 11.2 7.5 0 14.5-2.9 19.8-8.2L242 97.7c-3.6-2.9-5.9-7.3-5.9-12.3 0-8.7 7.1-15.8 15.8-15.8s15.8 7.1 15.8 15.8c-.2 7-4.6 12.8-10.7 14.9zm-18.3 98c0-4.1-3.4-7.5-7.5-7.5h-194c-4.1 0-7.5 3.4-7.5 7.5v18c0 4.1 3.4 7.5 7.5 7.5h194c4.1 0 7.5-3.4 7.5-7.5v-18z"/></symbol><symbol viewBox="0 0 306 306" id="information" xmlns="http://www.w3.org/2000/svg"><path d="M263.5 0h-221C37.8 0 34 3.8 34 8.5v289c0 4.7 3.8 8.5 8.5 8.5h221c4.7 0 8.5-3.8 8.5-8.5V8.5c0-4.7-3.8-8.5-8.5-8.5zm-34 272h-153c-4.7 0-8.5-3.8-8.5-8.5s3.8-8.5 8.5-8.5h153c4.7 0 8.5 3.8 8.5 8.5s-3.8 8.5-8.5 8.5zM95.6 221.6c.3-4.7 4.2-8.4 9-8 3.9-.1 8.8-4 13.4-9 3.4-8.4 10.2-16 18.3-19.4 3.8-1.5 8.2-.2 10.4 3.3.6.9 1 1.9 1.2 2.9h.1c3.2-1.3 6.8-.5 9.2 1.8 2 2 2.8 4.8 2.4 7.4h.4c9-.6 11.8 4.3 12.6 7.9 3.1 1.9 5.7 2.3 6.4 2.1 1.9-2.5 4.9-3.7 7.9-3.2 2 .3 3.9 1.3 5.2 2.8 7-.5 13.7-3.9 22.2-9.3 4-2.5 9.2-1.4 11.7 2.6 2.5 3.9 1.4 9.2-2.6 11.7-10.4 6.7-22.8 13.7-38.3 11.7-.3 0-.6-.1-1-.2-6.2 2-14 .6-21.4-4.4-1.3-.9-2.4-1.8-3.2-2.7-2.7 2.5-7 5.8-13.4 5.2-3.1-.3-5.8-2.3-7-5.1-4.1 3-8.9 5.2-15.1 5.1-1 0-1.9-.2-2.8-.5-4.9 3.6-10.3 6-16.3 6h-1.3c-4.6 0-8.2-4-8-8.7zM229.5 119h-153c-4.7 0-8.5-3.8-8.5-8.5s3.8-8.5 8.5-8.5h153c4.7 0 8.5 3.8 8.5 8.5s-3.8 8.5-8.5 8.5zm0-51h-153c-4.7 0-8.5-3.8-8.5-8.5s3.8-8.5 8.5-8.5h153c4.7 0 8.5 3.8 8.5 8.5s-3.8 8.5-8.5 8.5z"/></symbol><symbol viewBox="0 0 512 512" id="library" xmlns="http://www.w3.org/2000/svg"><path d="M256 0L0 160h512L256 0zm144 192l16 32v192h64V224l16-32h-96zm-128 0l16 32v192h64V224l16-32h-96zm-128 0l16 32v192h64V224l16-32h-96zm-128 0l16 32v192h64V224l16-32H16zm0 256L0 512h512l-16-64H16zM288 96c0 17.673-14.327 32-32 32s-32-14.327-32-32 14.327-32 32-32 32 14.327 32 32z"/></symbol><symbol viewBox="0 0 511.6 511.6" id="message" xmlns="http://www.w3.org/2000/svg"><path d="M49.1 178.7c6.5 4.6 26 18.1 58.5 40.7s57.5 39.9 74.8 52.1c1.9 1.3 5.9 4.2 12.1 8.7 6.2 4.5 11.3 8.1 15.4 10.9 4.1 2.8 9 5.9 14.8 9.3 5.8 3.4 11.3 6 16.4 7.7 5.1 1.7 9.9 2.6 14.3 2.6h.6c4.4 0 9.1-.9 14.3-2.6 5.1-1.7 10.6-4.3 16.4-7.7 5.8-3.4 10.8-6.5 14.8-9.3 4.1-2.8 9.2-6.4 15.4-10.9 6.2-4.5 10.2-7.4 12.1-8.7 17.5-12.2 62.1-43.1 133.6-92.8 13.9-9.7 25.5-21.4 34.8-35.1 9.3-13.7 14-28.1 14-43.1 0-12.6-4.5-23.3-13.6-32.3-9-8.9-19.7-13.4-32.1-13.4h-420c-14.7 0-25.9 4.9-33.8 14.8C3.9 79.6 0 91.9 0 106.8c0 12 5.2 25 15.7 39 10.5 13.9 21.6 24.9 33.4 32.9z"/><path d="M483.1 209.3c-62.4 42.3-109.8 75.1-142.2 98.5-10.8 8-19.6 14.2-26.4 18.7-6.8 4.5-15.7 9-27 13.7-11.2 4.7-21.7 7-31.4 7h-.6c-9.7 0-20.2-2.3-31.4-7s-20.2-9.2-27-13.7c-6.8-4.5-15.6-10.7-26.4-18.7-25.7-18.8-73-51.7-141.9-98.5C18 202 8.4 193.8 0 184.4v226.7c0 12.6 4.5 23.3 13.4 32.3 8.9 8.9 19.7 13.4 32.3 13.4H466c12.6 0 23.3-4.5 32.3-13.4 8.9-8.9 13.4-19.7 13.4-32.3V184.4c-8.3 9.2-17.8 17.5-28.6 24.9z"/></symbol><symbol viewBox="0 0 459.3 459.3" id="notifications" xmlns="http://www.w3.org/2000/svg"><path d="M175.2 404.5v.4c0 30.1 24.4 54.5 54.5 54.5s54.5-24.4 54.5-54.5v-.4h-109zm228.3-68.1l-49-72v-89.8c0-60.6-43.1-111.1-100.4-122.5V24.5c0-13.5-11-24.5-24.5-24.5s-24.5 11-24.5 24.5v27.7C147.9 63.5 104.8 114 104.8 174.6v89.8l-49 72c-5.2 7.6-5.7 17.4-1.4 25.5s12.7 13.2 21.9 13.2h306.8c9.2 0 17.6-5.1 21.9-13.2 4.3-8.1 3.7-17.9-1.5-25.5z"/></symbol><symbol viewBox="0 0 306 306" id="payment" xmlns="http://www.w3.org/2000/svg"><path d="M306 58.5V215c0 9.4-7.7 17.1-17.1 17.1h-3.3V61.7h-253v-3.2c0-9.5 7.7-17.2 17.1-17.2h239.2c9.4 0 17.1 7.7 17.1 17.2z"/><path d="M0 130.1h273.4v24.1H0zm0 36.3v79.8c0 10.2 8.3 18.5 18.5 18.5h236.4c10.2 0 18.5-8.3 18.5-18.5v-79.8H0zm52.9 61.2H30.7c-3.4 0-6.1-2.8-6.1-6.1 0-3.4 2.8-6.1 6.1-6.1h22.2c3.4 0 6.1 2.8 6.1 6.1.1 3.4-2.7 6.1-6.1 6.1zm48.6-27.1H30.7c-3.4 0-6.1-2.8-6.1-6.1 0-3.4 2.8-6.1 6.1-6.1h70.8c3.4 0 6.1 2.8 6.1 6.1s-2.7 6.1-6.1 6.1zm117.9 33.9c-5.2 0-10.1-1.6-14.1-4.3-4.1 2.8-9 4.3-14 4.3-13.9 0-25.2-11.3-25.2-25.2 0-13.9 11.3-25.2 25.2-25.2 5 0 9.9 1.5 14 4.3 4-2.8 8.9-4.3 14.1-4.3 13.8 0 25.2 11.3 25.2 25.2-.1 14-11.4 25.2-25.2 25.2zm54-142v25.5H0V92.4c0-10.2 8.3-18.5 18.5-18.5h236.4c10.1 0 18.5 8.4 18.5 18.5z"/></symbol><symbol viewBox="0 0 306 306" id="profile" xmlns="http://www.w3.org/2000/svg"><path d="M284.4 306H21.6c-6.3 0-11.2-4.8-11.2-11.2 0-78.9 50.6-122.5 142.6-122.5s142.6 43.6 142.6 122.5c0 6.4-4.9 11.2-11.2 11.2zM153 156c-40.9 0-74.1-36.1-74.1-80.4C78.9 32.4 110.9 0 153 0s74.1 32.4 74.1 75.6c0 44.3-33.2 80.4-74.1 80.4z"/></symbol><symbol viewBox="0 0 306 306" id="send_message" xmlns="http://www.w3.org/2000/svg"><path d="M158.6 162.8l-125 12.1L.8 280.1c-2.7 8.6 2.1 17.7 10.6 20.4 4 1.3 8.3.9 12.1-.9L297.3 167c7.7-3.8 10.9-13.1 7.2-20.8-1.5-3.1-4-5.6-7.2-7.2L23.7 6.4c-8.1-4-17.8-.6-21.8 7.5-1.9 3.7-2.2 8-.9 12L33.9 131l124.7 12.1c5.4.5 9.4 5.4 8.8 10.8-.5 4.7-4.2 8.4-8.8 8.9z"/></symbol><symbol viewBox="0 0 30 30" id="skype" xmlns="http://www.w3.org/2000/svg"><path d="M28.746 17.171A13.915 13.915 0 0015 1.081a14.025 14.025 0 00-2.173.171A8.413 8.413 0 001.252 12.829 14.25 14.25 0 001.083 15a13.925 13.925 0 0016.088 13.748 8.412 8.412 0 0011.575-11.577zm-7.139 4.159a5.759 5.759 0 01-2.584 1.985 10.259 10.259 0 01-4.016.716 9.586 9.586 0 01-4.6-.98 5.938 5.938 0 01-2.093-1.881 4.083 4.083 0 01-.81-2.3 1.533 1.533 0 01.5-1.139 1.767 1.767 0 011.263-.474 1.574 1.574 0 011.056.371 2.789 2.789 0 01.723 1.076 6.766 6.766 0 00.765 1.37 3.016 3.016 0 001.144.9 4.521 4.521 0 001.95.353 4.64 4.64 0 002.7-.715 2.078 2.078 0 001.024-1.765 1.767 1.767 0 00-.545-1.354 3.611 3.611 0 00-1.444-.808q-.893-.285-2.4-.6a18.664 18.664 0 01-3.385-1.029 5.471 5.471 0 01-2.18-1.614 4.015 4.015 0 01-.808-2.554 4.167 4.167 0 01.853-2.579 5.329 5.329 0 012.465-1.732 10.721 10.721 0 013.773-.6 10.02 10.02 0 013 .4 6.587 6.587 0 012.105 1.063 4.533 4.533 0 011.228 1.4 3.045 3.045 0 01.391 1.437 1.672 1.672 0 01-.5 1.175 1.642 1.642 0 01-1.239.52 1.5 1.5 0 01-1.03-.317 4.113 4.113 0 01-.747-1.006 4.478 4.478 0 00-1.208-1.511 3.715 3.715 0 00-2.257-.536 4.157 4.157 0 00-2.331.586 1.657 1.657 0 00-.872 1.385 1.332 1.332 0 00.291.859 2.488 2.488 0 00.824.635 5.892 5.892 0 001.071.422c.364.1.97.252 1.81.449q1.578.342 2.869.758a9.1 9.1 0 012.194 1.012 4.3 4.3 0 011.425 1.52 4.559 4.559 0 01.511 2.246 4.881 4.881 0 01-.884 2.867zm0 0"/></symbol><symbol viewBox="0 0 306 306" id="smile" xmlns="http://www.w3.org/2000/svg"><path d="M152.5 306C68.3 306 0 237.7 0 153.5S68.3 1 152.5 1 305 69.3 305 153.5 236.7 306 152.5 306zm0-284.7c-73 0-132.2 59.2-132.2 132.2s59.2 132.2 132.2 132.2 132.2-59.2 132.2-132.2S225.5 21.3 152.5 21.3z"/><circle cx="100.4" cy="114.4" r="20.3"/><circle cx="204.7" cy="114.4" r="20.3"/><path d="M152.5 213c-28.4-.1-56.3-7.1-81.3-20.3-4.9-2.7-6.7-8.9-3.9-13.8.1-.1.1-.2.2-.3 2.9-4.8 9.1-6.4 13.9-3.6 44.6 23.4 97.8 23.4 142.3 0 4.8-2.6 10.8-1 13.6 3.7 3 4.8 1.5 11-3.2 14-.1 0-.1.1-.2.1-25.1 13.2-53 20.1-81.4 20.2z"/></symbol><symbol viewBox="0 0 0 0" id="sprite" xmlns="http://www.w3.org/2000/svg"/><symbol viewBox="0 0 306 306" id="vacation" xmlns="http://www.w3.org/2000/svg"><path d="M173.7 123.9C160.5 93.5 128.6 94 128.6 94c22.4-21.3 84.2 4.8 84.2 4.8-27.5-51.5-70.4-44-70.4-44 15.4-17.2 41.4-8.9 41.4-8.9-27.1-34-64.8-11.7-64.8-11.7s-25.6-38.5-67-22c0 0 28.5 5.7 35.2 28.5 0 0-37.4-28-87.2 3.7 0 0 70.7 7.8 82.2 37.8 0 0-30-16.4-56.6 3.9 0 0 46.4 12.7 65.5 27.8-2.1 2.6-48.9 60.8-32.7 184.1l40.7-.1c-24.8-122.5 2.8-169.7 10.7-180.2 22.9-3.5 63.9 6.2 63.9 6.2zM306 230.7l-64.2-103.5-28.2 68-56.3 30.4 8.8.3v22.3c-33.1 4.5-28.1 27.1-28.1 27.1V298l28.1-35.1V298h132v-67.3h7.9zm-12.3 42.1h-23.8v-19.9h23.8v19.9z"/></symbol><symbol viewBox="0 0 488.2 488.2" id="wallet" xmlns="http://www.w3.org/2000/svg"><path d="M469.5 102.6h-86.7V40.2c0-10.3-8.4-18.7-18.7-18.7H59.2C26.5 21.5 0 48 0 80.7v326.7c0 32.7 26.5 59.2 59.2 59.2h410.3c10.3 0 18.7-8.4 18.7-18.7V121.3c0-10.4-8.4-18.7-18.7-18.7zM36.8 80.7c0-12.1 9.8-21.8 21.8-21.8h286.8v43.6H59.2c-12 .3-22.1-9.1-22.4-21.2v-.6zm331.7 243.2c-24.1 0-43.6-19.5-43.6-43.6s19.5-43.6 43.6-43.6 43.6 19.5 43.6 43.6-19.5 43.6-43.6 43.6z"/></symbol><symbol viewBox="0 0 306 306" id="weekend" xmlns="http://www.w3.org/2000/svg"><path d="M306 255.4l-5.8-5.3-6.7 12.3L157.9 48.6V35h-8.6v13.6L13.1 263.5l-7.3-13.3-5.8 5.2 8.4 15.4-.1.2h290.5l-.7-1.1 7.9-14.5zm-174.8 10.5l22.4-88.9 22.4 88.9h-44.8z"/></symbol></svg>