<?xml version="1.0" encoding="utf-8"?>
<!-- Generator: Adobe Illustrator 22.1.0, SVG Export Plug-In . SVG Version: 6.00 Build 0)  -->
<svg version="1.1" id="Capa_1" xmlns="http://www.w3.org/2000/svg" xmlns:xlink="http://www.w3.org/1999/xlink" x="0px" y="0px"
	 viewBox="0 0 306 306" style="enable-background:new 0 0 306 306;" xml:space="preserve">
<path d="M63.7,0C49.7,0,38.2,11.5,38.2,25.5V255c0,14,11.4,25.5,25.5,25.5h25.5V306l31.9-25.5L153,306v-25.5h89.3
	c14.1,0,25.5-11.5,25.5-25.5v-12.8c0,14-11.4,25.5-25.5,25.5H153v-25.5H89.3v25.5H70.1c-10.6,0-19.1-8.9-19.1-19.1
	c0-11.5,8.6-19.1,19.1-19.1h172.1c14.1,0,25.5-11.5,25.5-25.5V25.5c0-14-11.4-25.5-25.5-25.5H63.7L63.7,0z"/>
</svg>
