<?xml version="1.0" encoding="utf-8"?>
<!-- Generator: Adobe Illustrator 22.1.0, SVG Export Plug-In . SVG Version: 6.00 Build 0)  -->
<svg version="1.1" id="Capa_1" xmlns="http://www.w3.org/2000/svg" xmlns:xlink="http://www.w3.org/1999/xlink" x="0px" y="0px"
	 viewBox="0 0 306 306" style="enable-background:new 0 0 306 306;" xml:space="preserve">
<g>
	<path d="M263.5,0h-221C37.8,0,34,3.8,34,8.5v289c0,4.7,3.8,8.5,8.5,8.5h221c4.7,0,8.5-3.8,8.5-8.5V8.5C272,3.8,268.2,0,263.5,0z
		 M229.5,272h-153c-4.7,0-8.5-3.8-8.5-8.5s3.8-8.5,8.5-8.5h153c4.7,0,8.5,3.8,8.5,8.5S234.2,272,229.5,272z M95.6,221.6
		c0.3-4.7,4.2-8.4,9-8c3.9-0.1,8.8-4,13.4-9c3.4-8.4,10.2-16,18.3-19.4c3.8-1.5,8.2-0.2,10.4,3.3c0.6,0.9,1,1.9,1.2,2.9
		c0,0,0,0,0.1,0c3.2-1.3,6.8-0.5,9.2,1.8c2,2,2.8,4.8,2.4,7.4c0.1,0,0.3,0,0.4,0c9-0.6,11.8,4.3,12.6,7.9c3.1,1.9,5.7,2.3,6.4,2.1
		c1.9-2.5,4.9-3.7,7.9-3.2c2,0.3,3.9,1.3,5.2,2.8c7-0.5,13.7-3.9,22.2-9.3c4-2.5,9.2-1.4,11.7,2.6c2.5,3.9,1.4,9.2-2.6,11.7
		c-10.4,6.7-22.8,13.7-38.3,11.7c-0.3,0-0.6-0.1-1-0.2c-6.2,2-14,0.6-21.4-4.4c-1.3-0.9-2.4-1.8-3.2-2.7c-2.7,2.5-7,5.8-13.4,5.2
		c-3.1-0.3-5.8-2.3-7-5.1c-4.1,3-8.9,5.2-15.1,5.1c-1,0-1.9-0.2-2.8-0.5c-4.9,3.6-10.3,6-16.3,6c-0.4,0-0.9,0-1.3,0
		C99,230.3,95.4,226.3,95.6,221.6z M229.5,119h-153c-4.7,0-8.5-3.8-8.5-8.5s3.8-8.5,8.5-8.5h153c4.7,0,8.5,3.8,8.5,8.5
		S234.2,119,229.5,119z M229.5,68h-153c-4.7,0-8.5-3.8-8.5-8.5s3.8-8.5,8.5-8.5h153c4.7,0,8.5,3.8,8.5,8.5S234.2,68,229.5,68z"/>
</g>
</svg>
