<?xml version="1.0" encoding="utf-8"?>
<!-- Generator: Adobe Illustrator 22.1.0, SVG Export Plug-In . SVG Version: 6.00 Build 0)  -->
<svg version="1.1" id="Capa_1" xmlns="http://www.w3.org/2000/svg" xmlns:xlink="http://www.w3.org/1999/xlink" x="0px" y="0px"
	 viewBox="0 0 306 306" style="enable-background:new 0 0 306 306;" xml:space="preserve">
<g>
	<g>
		<g>
			<path d="M306,58.5V215c0,9.4-7.7,17.1-17.1,17.1h-3.3V61.7h-253v-3.2c0-9.5,7.7-17.2,17.1-17.2h239.2C298.3,41.3,306,49,306,58.5
				z"/>
		</g>
		<g>
			<rect y="130.1" width="273.4" height="24.1"/>
		</g>
	</g>
	<path d="M0,166.4v79.8c0,10.2,8.3,18.5,18.5,18.5h236.4c10.2,0,18.5-8.3,18.5-18.5v-79.8H0z M52.9,227.6H30.7
		c-3.4,0-6.1-2.8-6.1-6.1c0-3.4,2.8-6.1,6.1-6.1h22.2c3.4,0,6.1,2.8,6.1,6.1C59.1,224.9,56.3,227.6,52.9,227.6z M101.5,200.5H30.7
		c-3.4,0-6.1-2.8-6.1-6.1c0-3.4,2.8-6.1,6.1-6.1h70.8c3.4,0,6.1,2.8,6.1,6.1C107.6,197.7,104.9,200.5,101.5,200.5z M219.4,234.4
		c-5.2,0-10.1-1.6-14.1-4.3c-4.1,2.8-9,4.3-14,4.3c-13.9,0-25.2-11.3-25.2-25.2c0-13.9,11.3-25.2,25.2-25.2c5,0,9.9,1.5,14,4.3
		c4-2.8,8.9-4.3,14.1-4.3c13.8,0,25.2,11.3,25.2,25.2C244.5,223.2,233.2,234.4,219.4,234.4z"/>
	<path d="M273.4,92.4v25.5H0V92.4c0-10.2,8.3-18.5,18.5-18.5h236.4C265,73.9,273.4,82.3,273.4,92.4z"/>
</g>
</svg>
