<?xml version="1.0" standalone="no"?>
<!DOCTYPE svg PUBLIC "-//W3C//DTD SVG 20010904//EN"
 "http://www.w3.org/TR/2001/REC-SVG-20010904/DTD/svg10.dtd">
<svg version="1.0" xmlns="http://www.w3.org/2000/svg"
 width="386.000000pt" height="475.000000pt" viewBox="0 0 386.000000 475.000000"
 preserveAspectRatio="xMidYMid meet">
<g transform="translate(0.000000,475.000000) scale(0.100000,-0.100000)"
fill="#000000" stroke="none">
<path d="M1863 4678 c-73 -8 -151 -43 -232 -104 -64 -48 -112 -107 -186 -227
-26 -43 -59 -84 -74 -91 -14 -7 -99 -39 -188 -71 l-163 -57 0 -310 c0 -339 1
-347 60 -382 25 -14 107 -16 854 -16 l826 0 38 34 37 34 3 320 3 319 -191 68
-191 68 -73 111 c-80 122 -135 183 -211 231 -102 64 -195 86 -312 73z m227
-220 c107 -54 150 -140 150 -300 0 -76 -4 -96 -26 -141 -34 -67 -59 -94 -114
-121 -75 -38 -134 -49 -215 -43 -166 14 -269 119 -282 286 -10 143 45 260 152
317 57 31 66 33 167 33 100 1 110 -1 168 -31z"/>
<path d="M434 4110 c-122 -18 -266 -135 -332 -270 l-37 -75 -3 -1640 c-3
-1857 -7 -1738 74 -1857 46 -68 117 -130 189 -165 88 -44 123 -45 1666 -41
l1465 3 78 38 c85 43 165 115 209 189 59 101 57 42 57 1786 0 1738 2 1686 -56
1793 -43 80 -129 160 -219 205 l-77 38 -174 4 -174 5 0 -191 0 -191 158 -3
157 -3 0 -1645 0 -1645 -1485 0 -1485 0 0 1645 0 1645 158 3 157 3 0 189 0
190 -137 -1 c-76 -1 -161 -5 -189 -9z"/>
<path d="M1020 2570 l0 -430 430 0 430 0 0 430 0 430 -430 0 -430 0 0 -430z
m795 0 l0 -365 -365 0 -365 0 -3 355 c-1 195 0 361 3 368 3 10 82 12 367 10
l363 -3 0 -365z"/>
<path d="M2300 2490 l0 -30 270 0 270 0 0 30 0 30 -270 0 -270 0 0 -30z"/>
<path d="M1804 1559 l-229 -229 -50 0 c-47 0 -52 3 -110 60 l-61 60 -39 -40
-39 -40 124 -125 125 -125 292 292 292 293 -38 41 -39 41 -228 -228z"/>
<path d="M1020 1290 l0 -430 430 0 430 0 0 122 0 122 -30 -29 c-25 -24 -30
-36 -32 -89 l-3 -61 -365 0 -365 0 0 365 0 365 231 3 231 2 28 30 29 30 -292
0 -292 0 0 -430z"/>
<path d="M2300 1210 l0 -30 270 0 270 0 0 30 0 30 -270 0 -270 0 0 -30z"/>
</g>
</svg>
