<?xml version="1.0" encoding="utf-8"?>
<!-- Generator: Adobe Illustrator 22.1.0, SVG Export Plug-In . SVG Version: 6.00 Build 0)  -->
<svg version="1.1" id="Capa_1" xmlns="http://www.w3.org/2000/svg" xmlns:xlink="http://www.w3.org/1999/xlink" x="0px" y="0px"
	 viewBox="0 0 306 306" style="enable-background:new 0 0 306 306;" xml:space="preserve">
<path d="M158.6,162.8L33.6,174.9L0.8,280.1c-2.7,8.6,2.1,17.7,10.6,20.4c4,1.3,8.3,0.9,12.1-0.9l273.8-132.6
	c7.7-3.8,10.9-13.1,7.2-20.8c-1.5-3.1-4-5.6-7.2-7.2L23.7,6.4c-8.1-4-17.8-0.6-21.8,7.5C0,17.6-0.3,21.9,1,25.9l32.9,105.1
	l124.7,12.1c5.4,0.5,9.4,5.4,8.8,10.8C166.9,158.6,163.2,162.3,158.6,162.8L158.6,162.8z"/>
</svg>
