<?xml version="1.0" encoding="utf-8"?>
<!-- Generator: Adobe Illustrator 22.1.0, SVG Export Plug-In . SVG Version: 6.00 Build 0)  -->
<svg version="1.1" id="Capa_1" xmlns="http://www.w3.org/2000/svg" xmlns:xlink="http://www.w3.org/1999/xlink" x="0px" y="0px"
	 viewBox="0 0 306 306" style="enable-background:new 0 0 306 306;" xml:space="preserve">
<g>
	<path d="M152.5,306C68.3,306,0,237.7,0,153.5S68.3,1,152.5,1S305,69.3,305,153.5S236.7,306,152.5,306z M152.5,21.3
		c-73,0-132.2,59.2-132.2,132.2s59.2,132.2,132.2,132.2s132.2-59.2,132.2-132.2S225.5,21.3,152.5,21.3z"/>
	<circle cx="100.4" cy="114.4" r="20.3"/>
	<circle cx="204.7" cy="114.4" r="20.3"/>
	<path d="M152.5,213c-28.4-0.1-56.3-7.1-81.3-20.3c-4.9-2.7-6.7-8.9-3.9-13.8c0.1-0.1,0.1-0.2,0.2-0.3l0,0c2.9-4.8,9.1-6.4,13.9-3.6
		c44.6,23.4,97.8,23.4,142.3,0c4.8-2.6,10.8-1,13.6,3.7l0,0c3,4.8,1.5,11-3.2,14c-0.1,0-0.1,0.1-0.2,0.1
		C208.8,206,180.9,212.9,152.5,213z"/>
</g>
</svg>
