<?xml version="1.0" encoding="utf-8"?>
<!-- Generator: Adobe Illustrator 22.1.0, SVG Export Plug-In . SVG Version: 6.00 Build 0)  -->
<svg version="1.1" id="Capa_1" xmlns="http://www.w3.org/2000/svg" xmlns:xlink="http://www.w3.org/1999/xlink" x="0px" y="0px"
	 viewBox="0 0 488.2 488.2" style="enable-background:new 0 0 488.2 488.2;" xml:space="preserve">
<g>
	<path d="M469.5,102.6h-86.7V40.2c0-10.3-8.4-18.7-18.7-18.7H59.2C26.5,21.5,0,48,0,80.7v326.7c0,32.7,26.5,59.2,59.2,59.2h410.3
		c10.3,0,18.7-8.4,18.7-18.7V121.3C488.2,110.9,479.8,102.6,469.5,102.6z M36.8,80.7c0-12.1,9.8-21.8,21.8-21.8h286.8v43.6H59.2
		c-12,0.3-22.1-9.1-22.4-21.2C36.8,81.2,36.8,81,36.8,80.7z M368.5,323.9c-24.1,0-43.6-19.5-43.6-43.6c0-24.1,19.5-43.6,43.6-43.6
		c24.1,0,43.6,19.5,43.6,43.6l0,0C412.1,304.4,392.6,323.9,368.5,323.9z"/>
</g>
</svg>
